<svg width="207" height="41" viewBox="0 0 207 41" fill="none" xmlns="http://www.w3.org/2000/svg">
<path d="M30.064 33.256C29.424 33.256 28.9333 33.0853 28.592 32.744C28.2507 32.3813 28.08 31.8693 28.08 31.208V12.2C28.08 11.5387 28.2507 11.0373 28.592 10.696C28.9333 10.3547 29.424 10.184 30.064 10.184C30.704 10.184 31.1947 10.3547 31.536 10.696C31.8987 11.0373 32.08 11.5387 32.08 12.2V24.008H32.144L37.424 18.44C37.8507 18.0133 38.224 17.6827 38.544 17.448C38.864 17.2133 39.3013 17.096 39.856 17.096C40.4107 17.096 40.8267 17.2453 41.104 17.544C41.4027 17.8213 41.552 18.1627 41.552 18.568C41.552 18.9733 41.36 19.3787 40.976 19.784L35.408 25.672V24.008L41.52 30.6C41.904 31.0053 42.0747 31.4213 42.032 31.848C42.0107 32.2533 41.84 32.5947 41.52 32.872C41.2 33.128 40.7947 33.256 40.304 33.256C39.7067 33.256 39.2267 33.1387 38.864 32.904C38.5227 32.6693 38.1387 32.3173 37.712 31.848L32.144 26.024H32.08V31.208C32.08 32.5733 31.408 33.256 30.064 33.256ZM50.5803 33.32C48.8096 33.32 47.4763 32.8187 46.5803 31.816C45.6843 30.792 45.2363 29.2987 45.2363 27.336V12.2C45.2363 11.5387 45.4069 11.0373 45.7483 10.696C46.0896 10.3547 46.5803 10.184 47.2203 10.184C47.8603 10.184 48.3509 10.3547 48.6923 10.696C49.0549 11.0373 49.2363 11.5387 49.2363 12.2V27.144C49.2363 28.1253 49.4389 28.8507 49.8443 29.32C50.2709 29.7893 50.8683 30.024 51.6363 30.024C51.8069 30.024 51.9669 30.024 52.1163 30.024C52.2656 30.0027 52.4149 29.9813 52.5642 29.96C52.8629 29.9173 53.0656 30.0027 53.1723 30.216C53.2789 30.408 53.3323 30.8133 53.3323 31.432C53.3323 31.9653 53.2256 32.3813 53.0123 32.68C52.7989 32.9787 52.4469 33.16 51.9563 33.224C51.7429 33.2453 51.5189 33.2667 51.2843 33.288C51.0496 33.3093 50.8149 33.32 50.5803 33.32ZM57.439 33.224C56.799 33.224 56.3083 33.032 55.967 32.648C55.6257 32.264 55.455 31.7307 55.455 31.048V19.304C55.455 18.6 55.6257 18.0667 55.967 17.704C56.3083 17.32 56.799 17.128 57.439 17.128C58.079 17.128 58.5697 17.32 58.911 17.704C59.2737 18.0667 59.455 18.6 59.455 19.304V31.048C59.455 31.7307 59.2843 32.264 58.943 32.648C58.6017 33.032 58.1003 33.224 57.439 33.224ZM57.439 14.152C56.6923 14.152 56.1057 13.9707 55.679 13.608C55.2737 13.224 55.071 12.7013 55.071 12.04C55.071 11.3573 55.2737 10.8347 55.679 10.472C56.1057 10.1093 56.6923 9.928 57.439 9.928C58.207 9.928 58.7937 10.1093 59.199 10.472C59.6043 10.8347 59.807 11.3573 59.807 12.04C59.807 12.7013 59.6043 13.224 59.199 13.608C58.7937 13.9707 58.207 14.152 57.439 14.152ZM70.8433 33.32C69.2006 33.32 67.7713 32.9893 66.5553 32.328C65.3393 31.6453 64.4006 30.6853 63.7393 29.448C63.0779 28.2107 62.7473 26.76 62.7473 25.096C62.7473 23.8373 62.9286 22.7173 63.2913 21.736C63.6753 20.7333 64.2193 19.8907 64.9233 19.208C65.6273 18.504 66.4806 17.9707 67.4833 17.608C68.4859 17.224 69.6059 17.032 70.8433 17.032C71.5473 17.032 72.3046 17.128 73.1153 17.32C73.9473 17.512 74.7259 17.832 75.4513 18.28C75.7926 18.4933 76.0166 18.7493 76.1233 19.048C76.2299 19.3467 76.2513 19.656 76.1873 19.976C76.1233 20.2747 75.9846 20.5413 75.7713 20.776C75.5793 20.9893 75.3339 21.128 75.0353 21.192C74.7366 21.2347 74.4059 21.16 74.0433 20.968C73.5739 20.6907 73.0939 20.488 72.6033 20.36C72.1126 20.2107 71.6433 20.136 71.1953 20.136C70.4913 20.136 69.8726 20.2533 69.3393 20.488C68.8059 20.7013 68.3473 21.0213 67.9633 21.448C67.6006 21.8533 67.3233 22.3653 67.1313 22.984C66.9393 23.6027 66.8433 24.3173 66.8433 25.128C66.8433 26.7067 67.2166 27.9547 67.9633 28.872C68.7313 29.768 69.8086 30.216 71.1953 30.216C71.6433 30.216 72.1019 30.152 72.5713 30.024C73.0619 29.896 73.5526 29.6933 74.0433 29.416C74.4059 29.224 74.7259 29.16 75.0033 29.224C75.3019 29.288 75.5473 29.4373 75.7393 29.672C75.9313 29.8853 76.0486 30.152 76.0913 30.472C76.1339 30.7707 76.0913 31.0693 75.9633 31.368C75.8566 31.6667 75.6433 31.912 75.3233 32.104C74.6193 32.5307 73.8726 32.84 73.0833 33.032C72.2939 33.224 71.5473 33.32 70.8433 33.32ZM80.689 33.256C80.049 33.256 79.5583 33.0853 79.217 32.744C78.8757 32.3813 78.705 31.8693 78.705 31.208V12.2C78.705 11.5387 78.8757 11.0373 79.217 10.696C79.5583 10.3547 80.049 10.184 80.689 10.184C81.329 10.184 81.8197 10.3547 82.161 10.696C82.5237 11.0373 82.705 11.5387 82.705 12.2V24.008H82.769L88.049 18.44C88.4757 18.0133 88.849 17.6827 89.169 17.448C89.489 17.2133 89.9263 17.096 90.481 17.096C91.0357 17.096 91.4517 17.2453 91.729 17.544C92.0277 17.8213 92.177 18.1627 92.177 18.568C92.177 18.9733 91.985 19.3787 91.601 19.784L86.033 25.672V24.008L92.145 30.6C92.529 31.0053 92.6997 31.4213 92.657 31.848C92.6357 32.2533 92.465 32.5947 92.145 32.872C91.825 33.128 91.4197 33.256 90.929 33.256C90.3317 33.256 89.8517 33.1387 89.489 32.904C89.1477 32.6693 88.7637 32.3173 88.337 31.848L82.769 26.024H82.705V31.208C82.705 32.5733 82.033 33.256 80.689 33.256ZM101.109 33.288C100.043 33.288 99.0826 33.0853 98.2293 32.68C97.3973 32.2533 96.7359 31.6773 96.2453 30.952C95.7546 30.2267 95.5093 29.416 95.5093 28.52C95.5093 27.368 95.7973 26.4613 96.3733 25.8C96.9706 25.1387 97.9413 24.6693 99.2853 24.392C100.651 24.1147 102.507 23.976 104.853 23.976H106.293V25.672H104.885C103.157 25.672 101.792 25.7573 100.789 25.928C99.8079 26.0773 99.1146 26.344 98.7093 26.728C98.3253 27.112 98.1333 27.656 98.1333 28.36C98.1333 29.2347 98.4319 29.9493 99.0293 30.504C99.6479 31.0587 100.48 31.336 101.525 31.336C102.379 31.336 103.125 31.1333 103.765 30.728C104.427 30.3227 104.939 29.768 105.301 29.064C105.685 28.36 105.877 27.5493 105.877 26.632V22.984C105.877 21.6613 105.611 20.712 105.077 20.136C104.544 19.5387 103.669 19.24 102.453 19.24C101.707 19.24 100.96 19.336 100.213 19.528C99.4666 19.72 98.6773 20.0293 97.8453 20.456C97.5466 20.6053 97.2906 20.6587 97.0773 20.616C96.8639 20.552 96.6933 20.4347 96.5653 20.264C96.4373 20.0933 96.3626 19.9013 96.3413 19.688C96.3199 19.4533 96.3626 19.2293 96.4693 19.016C96.5973 18.8027 96.7893 18.632 97.0453 18.504C97.9839 18.0347 98.9119 17.6933 99.8293 17.48C100.747 17.2667 101.621 17.16 102.453 17.16C103.797 17.16 104.907 17.384 105.781 17.832C106.656 18.2587 107.307 18.92 107.733 19.816C108.16 20.6907 108.373 21.8213 108.373 23.208V31.88C108.373 32.3067 108.267 32.6373 108.053 32.872C107.861 33.1067 107.573 33.224 107.189 33.224C106.784 33.224 106.475 33.1067 106.261 32.872C106.048 32.6373 105.941 32.3067 105.941 31.88V29.384H106.229C106.059 30.1947 105.728 30.888 105.237 31.464C104.768 32.04 104.181 32.488 103.477 32.808C102.773 33.128 101.984 33.288 101.109 33.288ZM120.062 39.048C118.931 39.048 117.822 38.9093 116.734 38.632C115.667 38.376 114.697 37.96 113.822 37.384C113.566 37.2347 113.395 37.0533 113.31 36.84C113.246 36.6267 113.235 36.4133 113.278 36.2C113.321 36.008 113.417 35.8267 113.566 35.656C113.715 35.5067 113.886 35.4107 114.078 35.368C114.291 35.3253 114.505 35.3573 114.718 35.464C115.657 36.04 116.553 36.4347 117.406 36.648C118.259 36.8613 119.102 36.968 119.934 36.968C121.449 36.968 122.59 36.5627 123.358 35.752C124.147 34.9413 124.542 33.768 124.542 32.232V28.616H124.862C124.542 29.8533 123.859 30.8347 122.814 31.56C121.79 32.2853 120.585 32.648 119.198 32.648C117.769 32.648 116.531 32.328 115.486 31.688C114.441 31.0267 113.63 30.1093 113.054 28.936C112.499 27.7627 112.222 26.408 112.222 24.872C112.222 23.72 112.382 22.6747 112.702 21.736C113.022 20.776 113.481 19.9653 114.078 19.304C114.697 18.6213 115.433 18.0987 116.286 17.736C117.161 17.352 118.131 17.16 119.198 17.16C120.606 17.16 121.822 17.5227 122.846 18.248C123.87 18.952 124.531 19.912 124.83 21.128L124.51 21.512V18.536C124.51 18.1093 124.617 17.7893 124.83 17.576C125.065 17.3413 125.385 17.224 125.79 17.224C126.217 17.224 126.537 17.3413 126.75 17.576C126.963 17.7893 127.07 18.1093 127.07 18.536V31.88C127.07 34.248 126.473 36.0293 125.278 37.224C124.105 38.44 122.366 39.048 120.062 39.048ZM119.678 30.536C120.681 30.536 121.545 30.312 122.27 29.864C122.995 29.3947 123.55 28.7333 123.934 27.88C124.339 27.0267 124.542 26.024 124.542 24.872C124.542 23.144 124.105 21.7787 123.23 20.776C122.355 19.752 121.171 19.24 119.678 19.24C118.697 19.24 117.843 19.4747 117.118 19.944C116.393 20.392 115.827 21.0427 115.422 21.896C115.038 22.728 114.846 23.72 114.846 24.872C114.846 26.6 115.283 27.976 116.158 29C117.033 30.024 118.206 30.536 119.678 30.536ZM138.94 33.288C137.297 33.288 135.879 32.968 134.684 32.328C133.511 31.6667 132.593 30.7387 131.932 29.544C131.292 28.3493 130.972 26.92 130.972 25.256C130.972 23.6347 131.292 22.2267 131.932 21.032C132.572 19.816 133.447 18.8667 134.556 18.184C135.687 17.5013 136.988 17.16 138.46 17.16C139.505 17.16 140.444 17.3413 141.276 17.704C142.108 18.0453 142.812 18.5467 143.388 19.208C143.985 19.8693 144.433 20.6693 144.732 21.608C145.052 22.5467 145.212 23.6027 145.212 24.776C145.212 25.1173 145.116 25.3733 144.924 25.544C144.732 25.6933 144.455 25.768 144.092 25.768H132.956V24.072H143.484L142.972 24.488C142.972 23.336 142.801 22.3653 142.46 21.576C142.119 20.7653 141.617 20.1467 140.956 19.72C140.316 19.2933 139.505 19.08 138.524 19.08C137.436 19.08 136.508 19.336 135.74 19.848C134.993 20.3387 134.428 21.032 134.044 21.928C133.66 22.8027 133.468 23.8267 133.468 25V25.192C133.468 27.1547 133.937 28.648 134.876 29.672C135.836 30.696 137.191 31.208 138.94 31.208C139.665 31.208 140.38 31.112 141.084 30.92C141.809 30.728 142.513 30.408 143.196 29.96C143.495 29.768 143.761 29.6827 143.996 29.704C144.252 29.704 144.455 29.7787 144.604 29.928C144.753 30.056 144.849 30.2267 144.892 30.44C144.956 30.632 144.935 30.8453 144.828 31.08C144.743 31.3147 144.561 31.5173 144.284 31.688C143.58 32.2 142.748 32.5947 141.788 32.872C140.828 33.1493 139.879 33.288 138.94 33.288ZM150.243 33.224C149.817 33.224 149.497 33.1067 149.283 32.872C149.07 32.6373 148.963 32.3067 148.963 31.88V18.536C148.963 18.1093 149.07 17.7893 149.283 17.576C149.497 17.3413 149.806 17.224 150.211 17.224C150.617 17.224 150.926 17.3413 151.139 17.576C151.374 17.7893 151.491 18.1093 151.491 18.536V21.288L151.139 20.904C151.587 19.6667 152.313 18.7387 153.315 18.12C154.339 17.48 155.513 17.16 156.835 17.16C158.073 17.16 159.097 17.384 159.907 17.832C160.739 18.28 161.358 18.9627 161.763 19.88C162.169 20.776 162.371 21.9173 162.371 23.304V31.88C162.371 32.3067 162.254 32.6373 162.019 32.872C161.806 33.1067 161.497 33.224 161.091 33.224C160.665 33.224 160.334 33.1067 160.099 32.872C159.886 32.6373 159.779 32.3067 159.779 31.88V23.464C159.779 22.0133 159.491 20.9573 158.915 20.296C158.361 19.6133 157.465 19.272 156.227 19.272C154.798 19.272 153.657 19.72 152.803 20.616C151.971 21.4907 151.555 22.664 151.555 24.136V31.88C151.555 32.776 151.118 33.224 150.243 33.224ZM173.071 33.288C171.684 33.288 170.468 32.9573 169.423 32.296C168.399 31.6347 167.599 30.7067 167.023 29.512C166.468 28.296 166.191 26.8667 166.191 25.224C166.191 23.56 166.468 22.1307 167.023 20.936C167.599 19.72 168.399 18.792 169.423 18.152C170.468 17.4907 171.684 17.16 173.071 17.16C174.479 17.16 175.684 17.512 176.687 18.216C177.689 18.92 178.361 19.8693 178.703 21.064H178.351V11.528C178.351 11.1013 178.457 10.7813 178.671 10.568C178.905 10.3333 179.236 10.216 179.663 10.216C180.068 10.216 180.377 10.3333 180.591 10.568C180.825 10.7813 180.943 11.1013 180.943 11.528V31.88C180.943 32.3067 180.836 32.6373 180.623 32.872C180.409 33.1067 180.089 33.224 179.663 33.224C179.257 33.224 178.937 33.1067 178.703 32.872C178.489 32.6373 178.383 32.3067 178.383 31.88V28.84L178.735 29.288C178.393 30.504 177.711 31.4747 176.687 32.2C175.684 32.9253 174.479 33.288 173.071 33.288ZM173.615 31.208C174.575 31.208 175.417 30.9733 176.143 30.504C176.868 30.0347 177.423 29.352 177.807 28.456C178.212 27.56 178.415 26.4827 178.415 25.224C178.415 23.2827 177.977 21.8 177.103 20.776C176.249 19.752 175.087 19.24 173.615 19.24C172.633 19.24 171.78 19.4747 171.055 19.944C170.351 20.392 169.796 21.064 169.391 21.96C169.007 22.8347 168.815 23.9227 168.815 25.224C168.815 27.144 169.252 28.6267 170.127 29.672C171.001 30.696 172.164 31.208 173.615 31.208ZM190.703 33.288C189.636 33.288 188.676 33.0853 187.823 32.68C186.991 32.2533 186.33 31.6773 185.839 30.952C185.348 30.2267 185.103 29.416 185.103 28.52C185.103 27.368 185.391 26.4613 185.967 25.8C186.564 25.1387 187.535 24.6693 188.879 24.392C190.244 24.1147 192.1 23.976 194.447 23.976H195.887V25.672H194.479C192.751 25.672 191.386 25.7573 190.383 25.928C189.402 26.0773 188.708 26.344 188.303 26.728C187.919 27.112 187.727 27.656 187.727 28.36C187.727 29.2347 188.026 29.9493 188.623 30.504C189.242 31.0587 190.074 31.336 191.119 31.336C191.972 31.336 192.719 31.1333 193.359 30.728C194.02 30.3227 194.532 29.768 194.895 29.064C195.279 28.36 195.471 27.5493 195.471 26.632V22.984C195.471 21.6613 195.204 20.712 194.671 20.136C194.138 19.5387 193.263 19.24 192.047 19.24C191.3 19.24 190.554 19.336 189.807 19.528C189.06 19.72 188.271 20.0293 187.439 20.456C187.14 20.6053 186.884 20.6587 186.671 20.616C186.458 20.552 186.287 20.4347 186.159 20.264C186.031 20.0933 185.956 19.9013 185.935 19.688C185.914 19.4533 185.956 19.2293 186.063 19.016C186.191 18.8027 186.383 18.632 186.639 18.504C187.578 18.0347 188.506 17.6933 189.423 17.48C190.34 17.2667 191.215 17.16 192.047 17.16C193.391 17.16 194.5 17.384 195.375 17.832C196.25 18.2587 196.9 18.92 197.327 19.816C197.754 20.6907 197.967 21.8213 197.967 23.208V31.88C197.967 32.3067 197.86 32.6373 197.647 32.872C197.455 33.1067 197.167 33.224 196.783 33.224C196.378 33.224 196.068 33.1067 195.855 32.872C195.642 32.6373 195.535 32.3067 195.535 31.88V29.384H195.823C195.652 30.1947 195.322 30.888 194.831 31.464C194.362 32.04 193.775 32.488 193.071 32.808C192.367 33.128 191.578 33.288 190.703 33.288Z" fill="white"/>
<path d="M10.6082 11.3863C10.1613 11.4473 9.72461 11.6148 9.33359 11.8789C8.89688 12.1633 8.61758 12.4477 8.33828 12.8844C7.95234 13.4887 7.81016 14.1336 7.85586 15.0781L7.88633 15.6875H7.07891C6.15469 15.6875 5.87031 15.7434 5.28125 16.0277C4.99688 16.1648 4.79883 16.3121 4.48906 16.6219C4.05234 17.0586 3.83906 17.3887 3.64609 17.9219L3.5293 18.252L3.51406 26.0977L3.50391 33.9434L3.61563 34.1719C3.78828 34.507 4.0168 34.6441 4.36719 34.6187C4.62617 34.5984 4.86992 34.4664 7.68828 32.8566C9.35898 31.902 10.7555 31.1047 10.791 31.0945C10.8266 31.0793 12.2637 31.8715 13.9852 32.8566L17.1133 34.6441L17.3824 34.6187C17.7074 34.5934 17.9258 34.4512 18.0477 34.2023C18.1188 34.05 18.1289 33.7098 18.1289 31.2316C18.1289 29.693 18.1391 28.4336 18.1543 28.4336C18.1695 28.4336 18.9008 28.8449 19.7742 29.3477C20.6781 29.8707 21.45 30.282 21.5516 30.2973C21.8359 30.343 22.1711 30.1906 22.3336 29.9418L22.4707 29.7336L22.4859 22.025C22.4961 15.3473 22.4859 14.2656 22.4199 13.9457C22.227 13.0012 21.5211 12.0922 20.668 11.6859C20.4293 11.5742 20.1195 11.4574 19.9824 11.427C19.6828 11.3559 11.0652 11.3203 10.6082 11.3863ZM19.9063 13.1332C20.4242 13.3465 20.7188 13.773 20.8203 14.4484C20.8711 14.8141 20.8965 28.0781 20.8457 28.0781C20.8305 28.0781 20.2109 27.7277 19.4695 27.3062L18.1238 26.5293L18.1289 22.4414C18.1391 18.3687 18.1391 18.3535 18.0273 17.998C17.8445 17.4191 17.6313 17.0687 17.1895 16.627C16.8848 16.3223 16.6867 16.1699 16.4023 16.0328C15.6863 15.6824 15.727 15.6875 12.4465 15.6875H9.49609V15.0629C9.49609 14.0879 9.66367 13.6156 10.1309 13.2906C10.5523 12.9961 10.4914 13.0012 15.2598 13.0113L19.627 13.0215L19.9063 13.1332ZM15.2852 17.3937C15.8488 17.5207 16.2348 17.8559 16.4125 18.3738C16.4633 18.516 16.4785 20.1055 16.4938 25.4781C16.4988 29.2816 16.4938 32.3945 16.4785 32.3945C16.4633 32.3945 15.2445 31.7039 13.7719 30.8609C11.2684 29.4289 11.0805 29.3273 10.8418 29.3273C10.598 29.3223 10.466 29.3934 7.90156 30.8609C6.42891 31.7039 5.2 32.3945 5.17461 32.3945C5.14414 32.3945 5.13398 29.6168 5.13906 25.5238C5.15938 17.8812 5.13398 18.3992 5.49961 17.9117C5.67734 17.668 6.08359 17.4395 6.44922 17.3684C6.57617 17.343 8.53633 17.3227 10.8063 17.3176C14.3863 17.3125 14.9805 17.3227 15.2852 17.3937Z" fill="white"/>
<path d="M12.6953 21.3547C12.5887 21.4004 12.0301 21.9184 11.3141 22.6344L10.1055 23.8379L9.61289 23.3453C9.10508 22.8426 8.95273 22.7461 8.66836 22.7461C8.29258 22.7512 7.87617 23.1676 7.87109 23.5484C7.87109 23.8531 8.0082 24.0359 8.86641 24.8891C9.58242 25.5949 9.75508 25.7371 9.91758 25.7676C10.3695 25.8539 10.3594 25.8641 12.0809 24.1527C12.9594 23.2742 13.7008 22.4973 13.7414 22.4059C13.909 22.0199 13.7414 21.5832 13.3555 21.3852C13.0965 21.2531 12.9441 21.248 12.6953 21.3547Z" fill="white"/>
</svg>
