<svg width="234" height="35" viewBox="0 0 234 35" fill="none" xmlns="http://www.w3.org/2000/svg">
<path d="M31.9232 28.0385C31.154 28.0385 30.5642 27.8333 30.154 27.4231C29.7437 26.9872 29.5386 26.3718 29.5386 25.5769V2.73077C29.5386 1.9359 29.7437 1.33333 30.154 0.923076C30.5642 0.512819 31.154 0.307691 31.9232 0.307691C32.6924 0.307691 33.2822 0.512819 33.6924 0.923076C34.1283 1.33333 34.3463 1.9359 34.3463 2.73077V16.9231H34.4232L40.7693 10.2308C41.2822 9.71795 41.7309 9.32051 42.1155 9.03846C42.5001 8.75641 43.0258 8.61538 43.6924 8.61538C44.3591 8.61538 44.8591 8.79487 45.1924 9.15385C45.5514 9.48718 45.7309 9.89743 45.7309 10.3846C45.7309 10.8718 45.5001 11.359 45.0386 11.8462L38.3463 18.9231V16.9231L45.6924 24.8462C46.154 25.3333 46.3591 25.8333 46.3078 26.3462C46.2822 26.8333 46.077 27.2436 45.6924 27.5769C45.3078 27.8846 44.8206 28.0385 44.2309 28.0385C43.5129 28.0385 42.936 27.8974 42.5001 27.6154C42.0899 27.3333 41.6283 26.9103 41.1155 26.3462L34.4232 19.3462H34.3463V25.5769C34.3463 27.2179 33.5386 28.0385 31.9232 28.0385Z" fill="#6A4BFF"/>
<path d="M56.5821 28.1154C54.4539 28.1154 52.8514 27.5128 51.7744 26.3077C50.6975 25.0769 50.1591 23.2821 50.1591 20.9231V2.73077C50.1591 1.9359 50.3642 1.33333 50.7744 0.923076C51.1847 0.512819 51.7744 0.307691 52.5437 0.307691C53.3129 0.307691 53.9027 0.512819 54.3129 0.923076C54.7488 1.33333 54.9668 1.9359 54.9668 2.73077V20.6923C54.9668 21.8718 55.2103 22.7436 55.6975 23.3077C56.2103 23.8718 56.9283 24.1538 57.8514 24.1538C58.0565 24.1538 58.2488 24.1538 58.4283 24.1538C58.6078 24.1282 58.7873 24.1026 58.9668 24.0769C59.3257 24.0256 59.5693 24.1282 59.6975 24.3846C59.8257 24.6154 59.8898 25.1026 59.8898 25.8462C59.8898 26.4872 59.7616 26.9872 59.5052 27.3462C59.2488 27.7051 58.8257 27.9231 58.236 28C57.9796 28.0256 57.7103 28.0513 57.4283 28.0769C57.1462 28.1026 56.8642 28.1154 56.5821 28.1154Z" fill="#6A4BFF"/>
<path d="M64.8258 28C64.0566 28 63.4669 27.7692 63.0566 27.3077C62.6463 26.8462 62.4412 26.2051 62.4412 25.3846V11.2692C62.4412 10.4231 62.6463 9.78205 63.0566 9.34615C63.4669 8.88461 64.0566 8.65385 64.8258 8.65385C65.5951 8.65385 66.1848 8.88461 66.5951 9.34615C67.031 9.78205 67.2489 10.4231 67.2489 11.2692V25.3846C67.2489 26.2051 67.0438 26.8462 66.6335 27.3077C66.2233 27.7692 65.6207 28 64.8258 28ZM64.8258 5.07692C63.9284 5.07692 63.2233 4.85897 62.7104 4.42308C62.2233 3.96154 61.9797 3.33333 61.9797 2.53846C61.9797 1.71795 62.2233 1.08974 62.7104 0.653845C63.2233 0.217948 63.9284 0 64.8258 0C65.7489 0 66.454 0.217948 66.9412 0.653845C67.4284 1.08974 67.672 1.71795 67.672 2.53846C67.672 3.33333 67.4284 3.96154 66.9412 4.42308C66.454 4.85897 65.7489 5.07692 64.8258 5.07692Z" fill="#6A4BFF"/>
<path d="M80.9367 28.1154C78.9624 28.1154 77.2444 27.7179 75.7829 26.9231C74.3213 26.1026 73.1931 24.9487 72.3982 23.4615C71.6034 21.9744 71.2059 20.2308 71.2059 18.2308C71.2059 16.7179 71.4239 15.3718 71.8598 14.1923C72.3213 12.9872 72.9752 11.9744 73.8213 11.1538C74.6675 10.3077 75.6931 9.66667 76.8982 9.23077C78.1034 8.76923 79.4495 8.53846 80.9367 8.53846C81.7829 8.53846 82.6931 8.65385 83.6675 8.88462C84.6675 9.11538 85.6034 9.5 86.4752 10.0385C86.8854 10.2949 87.1547 10.6026 87.2829 10.9615C87.4111 11.3205 87.4367 11.6923 87.3598 12.0769C87.2829 12.4359 87.1162 12.7564 86.8598 13.0385C86.629 13.2949 86.3341 13.4615 85.9752 13.5385C85.6162 13.5897 85.2188 13.5 84.7829 13.2692C84.2188 12.9359 83.6418 12.6923 83.0521 12.5385C82.4623 12.359 81.8982 12.2692 81.3598 12.2692C80.5136 12.2692 79.77 12.4103 79.129 12.6923C78.488 12.9487 77.9367 13.3333 77.4752 13.8462C77.0393 14.3333 76.7059 14.9487 76.4752 15.6923C76.2444 16.4359 76.129 17.2949 76.129 18.2692C76.129 20.1667 76.5777 21.6667 77.4752 22.7692C78.3982 23.8462 79.6931 24.3846 81.3598 24.3846C81.8982 24.3846 82.4495 24.3077 83.0136 24.1538C83.6034 24 84.1931 23.7564 84.7829 23.4231C85.2188 23.1923 85.6034 23.1154 85.9367 23.1923C86.2957 23.2692 86.5906 23.4487 86.8213 23.7308C87.0521 23.9872 87.1931 24.3077 87.2444 24.6923C87.2957 25.0513 87.2444 25.4103 87.0906 25.7692C86.9623 26.1282 86.7059 26.4231 86.3213 26.6538C85.4752 27.1667 84.5777 27.5385 83.629 27.7692C82.6803 28 81.7829 28.1154 80.9367 28.1154Z" fill="#6A4BFF"/>
<path d="M92.7705 28.0385C92.0013 28.0385 91.4116 27.8333 91.0013 27.4231C90.5911 26.9872 90.3859 26.3718 90.3859 25.5769V2.73077C90.3859 1.9359 90.5911 1.33333 91.0013 0.923076C91.4116 0.512819 92.0013 0.307691 92.7705 0.307691C93.5398 0.307691 94.1295 0.512819 94.5398 0.923076C94.9757 1.33333 95.1936 1.9359 95.1936 2.73077V16.9231H95.2705L101.617 10.2308C102.13 9.71795 102.578 9.32051 102.963 9.03846C103.347 8.75641 103.873 8.61538 104.54 8.61538C105.206 8.61538 105.706 8.79487 106.04 9.15385C106.399 9.48718 106.578 9.89743 106.578 10.3846C106.578 10.8718 106.347 11.359 105.886 11.8462L99.1936 18.9231V16.9231L106.54 24.8462C107.001 25.3333 107.206 25.8333 107.155 26.3462C107.13 26.8333 106.924 27.2436 106.54 27.5769C106.155 27.8846 105.668 28.0385 105.078 28.0385C104.36 28.0385 103.783 27.8974 103.347 27.6154C102.937 27.3333 102.476 26.9103 101.963 26.3462L95.2705 19.3462H95.1936V25.5769C95.1936 27.2179 94.3859 28.0385 92.7705 28.0385Z" fill="#6A4BFF"/>
<path d="M117.314 28.0769C116.032 28.0769 114.878 27.8333 113.853 27.3462C112.853 26.8333 112.058 26.141 111.468 25.2692C110.878 24.3974 110.583 23.4231 110.583 22.3462C110.583 20.9615 110.929 19.8718 111.622 19.0769C112.34 18.282 113.506 17.7179 115.122 17.3846C116.763 17.0513 118.994 16.8846 121.814 16.8846H123.545V18.9231H121.853C119.776 18.9231 118.135 19.0256 116.929 19.2308C115.75 19.4103 114.917 19.7308 114.429 20.1923C113.968 20.6538 113.737 21.3077 113.737 22.1538C113.737 23.2051 114.096 24.0641 114.814 24.7308C115.558 25.3974 116.558 25.7308 117.814 25.7308C118.84 25.7308 119.737 25.4872 120.506 25C121.301 24.5128 121.917 23.8462 122.353 23C122.814 22.1538 123.045 21.1795 123.045 20.0769V15.6923C123.045 14.1026 122.724 12.9615 122.083 12.2692C121.442 11.5513 120.391 11.1923 118.929 11.1923C118.032 11.1923 117.135 11.3077 116.237 11.5385C115.34 11.7692 114.391 12.141 113.391 12.6538C113.032 12.8333 112.724 12.8974 112.468 12.8462C112.212 12.7692 112.006 12.6282 111.853 12.4231C111.699 12.2179 111.609 11.9872 111.583 11.7308C111.558 11.4487 111.609 11.1795 111.737 10.9231C111.891 10.6667 112.122 10.4615 112.429 10.3077C113.558 9.74359 114.673 9.33333 115.776 9.07692C116.878 8.82051 117.929 8.69231 118.929 8.69231C120.545 8.69231 121.878 8.96154 122.929 9.5C123.981 10.0128 124.763 10.8077 125.276 11.8846C125.788 12.9359 126.045 14.2949 126.045 15.9615V26.3846C126.045 26.8974 125.917 27.2949 125.66 27.5769C125.429 27.859 125.083 28 124.622 28C124.135 28 123.763 27.859 123.506 27.5769C123.25 27.2949 123.122 26.8974 123.122 26.3846V23.3846H123.468C123.263 24.359 122.865 25.1923 122.276 25.8846C121.712 26.5769 121.006 27.1154 120.16 27.5C119.314 27.8846 118.365 28.0769 117.314 28.0769Z" fill="#6A4BFF"/>
<path d="M140.094 35C138.735 35 137.402 34.8333 136.094 34.5C134.812 34.1923 133.645 33.6923 132.594 33C132.286 32.8205 132.081 32.6026 131.978 32.3462C131.902 32.0897 131.889 31.8333 131.94 31.5769C131.991 31.3462 132.107 31.1282 132.286 30.9231C132.466 30.7436 132.671 30.6282 132.902 30.5769C133.158 30.5256 133.414 30.5641 133.671 30.6923C134.799 31.3846 135.876 31.859 136.902 32.1154C137.927 32.3718 138.94 32.5 139.94 32.5C141.761 32.5 143.132 32.0128 144.055 31.0385C145.004 30.0641 145.478 28.6538 145.478 26.8077V22.4615H145.863C145.478 23.9487 144.658 25.1282 143.402 26C142.171 26.8718 140.722 27.3077 139.055 27.3077C137.337 27.3077 135.85 26.9231 134.594 26.1538C133.337 25.359 132.363 24.2564 131.671 22.8462C131.004 21.4359 130.671 19.8077 130.671 17.9615C130.671 16.5769 130.863 15.3205 131.248 14.1923C131.632 13.0385 132.184 12.0641 132.902 11.2692C133.645 10.4487 134.53 9.82051 135.555 9.38461C136.607 8.92308 137.773 8.69231 139.055 8.69231C140.748 8.69231 142.209 9.1282 143.44 10C144.671 10.8462 145.466 12 145.825 13.4615L145.44 13.9231V10.3462C145.44 9.83333 145.568 9.44872 145.825 9.19231C146.107 8.91026 146.491 8.76923 146.978 8.76923C147.491 8.76923 147.876 8.91026 148.132 9.19231C148.389 9.44872 148.517 9.83333 148.517 10.3462V26.3846C148.517 29.2308 147.799 31.3718 146.363 32.8077C144.953 34.2692 142.863 35 140.094 35ZM139.632 24.7692C140.837 24.7692 141.876 24.5 142.748 23.9615C143.62 23.3974 144.286 22.6026 144.748 21.5769C145.235 20.5513 145.478 19.3462 145.478 17.9615C145.478 15.8846 144.953 14.2436 143.902 13.0385C142.85 11.8077 141.427 11.1923 139.632 11.1923C138.453 11.1923 137.427 11.4744 136.555 12.0385C135.684 12.5769 135.004 13.359 134.517 14.3846C134.055 15.3846 133.825 16.5769 133.825 17.9615C133.825 20.0385 134.35 21.6923 135.402 22.9231C136.453 24.1538 137.863 24.7692 139.632 24.7692Z" fill="#6A4BFF"/>
<path d="M162.784 28.0769C160.809 28.0769 159.104 27.6923 157.668 26.9231C156.258 26.1282 155.156 25.0128 154.361 23.5769C153.591 22.141 153.207 20.4231 153.207 18.4231C153.207 16.4744 153.591 14.7821 154.361 13.3462C155.13 11.8846 156.181 10.7436 157.515 9.92308C158.874 9.10256 160.438 8.69231 162.207 8.69231C163.463 8.69231 164.591 8.91026 165.591 9.34615C166.591 9.75641 167.438 10.359 168.13 11.1538C168.848 11.9487 169.386 12.9103 169.745 14.0385C170.13 15.1667 170.322 16.4359 170.322 17.8462C170.322 18.2564 170.207 18.5641 169.976 18.7692C169.745 18.9487 169.412 19.0385 168.976 19.0385H155.591V17H168.245L167.63 17.5C167.63 16.1154 167.425 14.9487 167.015 14C166.604 13.0256 166.002 12.2821 165.207 11.7692C164.438 11.2564 163.463 11 162.284 11C160.976 11 159.861 11.3077 158.938 11.9231C158.04 12.5128 157.361 13.3462 156.899 14.4231C156.438 15.4744 156.207 16.7051 156.207 18.1154V18.3462C156.207 20.7051 156.771 22.5 157.899 23.7308C159.053 24.9615 160.681 25.5769 162.784 25.5769C163.656 25.5769 164.515 25.4615 165.361 25.2308C166.232 25 167.079 24.6154 167.899 24.0769C168.258 23.8462 168.579 23.7436 168.861 23.7692C169.168 23.7692 169.412 23.859 169.591 24.0385C169.771 24.1923 169.886 24.3974 169.938 24.6538C170.015 24.8846 169.989 25.141 169.861 25.4231C169.758 25.7051 169.54 25.9487 169.207 26.1538C168.361 26.7692 167.361 27.2436 166.207 27.5769C165.053 27.9103 163.912 28.0769 162.784 28.0769Z" fill="#6A4BFF"/>
<path d="M176.369 28C175.857 28 175.472 27.859 175.216 27.5769C174.959 27.2949 174.831 26.8974 174.831 26.3846V10.3462C174.831 9.83333 174.959 9.44872 175.216 9.19231C175.472 8.91026 175.844 8.76923 176.331 8.76923C176.818 8.76923 177.19 8.91026 177.446 9.19231C177.728 9.44872 177.869 9.83333 177.869 10.3462V13.6538L177.446 13.1923C177.985 11.7051 178.857 10.5897 180.062 9.84615C181.292 9.07692 182.703 8.69231 184.292 8.69231C185.78 8.69231 187.01 8.96154 187.985 9.5C188.985 10.0385 189.728 10.859 190.216 11.9615C190.703 13.0385 190.946 14.4103 190.946 16.0769V26.3846C190.946 26.8974 190.805 27.2949 190.523 27.5769C190.267 27.859 189.895 28 189.408 28C188.895 28 188.498 27.859 188.216 27.5769C187.959 27.2949 187.831 26.8974 187.831 26.3846V16.2692C187.831 14.5256 187.485 13.2564 186.792 12.4615C186.126 11.641 185.049 11.2308 183.562 11.2308C181.844 11.2308 180.472 11.7692 179.446 12.8462C178.446 13.8974 177.946 15.3077 177.946 17.0769V26.3846C177.946 27.4615 177.421 28 176.369 28Z" fill="#6A4BFF"/>
<path d="M203.806 28.0769C202.14 28.0769 200.678 27.6795 199.422 26.8846C198.191 26.0897 197.229 24.9744 196.537 23.5385C195.87 22.0769 195.537 20.359 195.537 18.3846C195.537 16.3846 195.87 14.6667 196.537 13.2308C197.229 11.7692 198.191 10.6538 199.422 9.88461C200.678 9.08974 202.14 8.69231 203.806 8.69231C205.499 8.69231 206.947 9.11538 208.152 9.96154C209.358 10.8077 210.165 11.9487 210.576 13.3846H210.152V1.92308C210.152 1.41026 210.281 1.02564 210.537 0.76923C210.819 0.487179 211.217 0.346154 211.729 0.346154C212.217 0.346154 212.588 0.487179 212.845 0.76923C213.127 1.02564 213.268 1.41026 213.268 1.92308V26.3846C213.268 26.8974 213.14 27.2949 212.883 27.5769C212.627 27.859 212.242 28 211.729 28C211.242 28 210.858 27.859 210.576 27.5769C210.319 27.2949 210.191 26.8974 210.191 26.3846V22.7308L210.614 23.2692C210.204 24.7308 209.383 25.8974 208.152 26.7692C206.947 27.641 205.499 28.0769 203.806 28.0769ZM204.46 25.5769C205.614 25.5769 206.627 25.2949 207.499 24.7308C208.37 24.1667 209.037 23.3462 209.499 22.2692C209.986 21.1923 210.229 19.8974 210.229 18.3846C210.229 16.0513 209.704 14.2692 208.652 13.0385C207.627 11.8077 206.229 11.1923 204.46 11.1923C203.281 11.1923 202.255 11.4744 201.383 12.0385C200.537 12.5769 199.87 13.3846 199.383 14.4615C198.922 15.5128 198.691 16.8205 198.691 18.3846C198.691 20.6923 199.217 22.4744 200.268 23.7308C201.319 24.9615 202.717 25.5769 204.46 25.5769Z" fill="#6A4BFF"/>
<path d="M224.999 28.0769C223.717 28.0769 222.563 27.8333 221.537 27.3462C220.537 26.8333 219.742 26.141 219.153 25.2692C218.563 24.3974 218.268 23.4231 218.268 22.3462C218.268 20.9615 218.614 19.8718 219.307 19.0769C220.025 18.282 221.191 17.7179 222.807 17.3846C224.448 17.0513 226.678 16.8846 229.499 16.8846H231.23V18.9231H229.537C227.46 18.9231 225.819 19.0256 224.614 19.2308C223.435 19.4103 222.601 19.7308 222.114 20.1923C221.653 20.6538 221.422 21.3077 221.422 22.1538C221.422 23.2051 221.781 24.0641 222.499 24.7308C223.242 25.3974 224.242 25.7308 225.499 25.7308C226.525 25.7308 227.422 25.4872 228.191 25C228.986 24.5128 229.601 23.8462 230.037 23C230.499 22.1538 230.73 21.1795 230.73 20.0769V15.6923C230.73 14.1026 230.409 12.9615 229.768 12.2692C229.127 11.5513 228.076 11.1923 226.614 11.1923C225.717 11.1923 224.819 11.3077 223.922 11.5385C223.025 11.7692 222.076 12.141 221.076 12.6538C220.717 12.8333 220.409 12.8974 220.153 12.8462C219.896 12.7692 219.691 12.6282 219.537 12.4231C219.384 12.2179 219.294 11.9872 219.268 11.7308C219.242 11.4487 219.294 11.1795 219.422 10.9231C219.576 10.6667 219.807 10.4615 220.114 10.3077C221.242 9.74359 222.358 9.33333 223.46 9.07692C224.563 8.82051 225.614 8.69231 226.614 8.69231C228.23 8.69231 229.563 8.96154 230.614 9.5C231.666 10.0128 232.448 10.8077 232.96 11.8846C233.473 12.9359 233.73 14.2949 233.73 15.9615V26.3846C233.73 26.8974 233.601 27.2949 233.345 27.5769C233.114 27.859 232.768 28 232.307 28C231.819 28 231.448 27.859 231.191 27.5769C230.935 27.2949 230.807 26.8974 230.807 26.3846V23.3846H231.153C230.948 24.359 230.55 25.1923 229.96 25.8846C229.396 26.5769 228.691 27.1154 227.845 27.5C226.999 27.8846 226.05 28.0769 224.999 28.0769Z" fill="#6A4BFF"/>
<path d="M8.53882 1.7528C8.00171 1.82604 7.47681 2.02746 7.00684 2.34484C6.48193 2.68663 6.14624 3.02843 5.81055 3.55333C5.34668 4.27965 5.17578 5.0548 5.23071 6.19005L5.26733 6.92247H4.29688C3.18604 6.92247 2.84424 6.98961 2.13623 7.33141C1.79443 7.4962 1.5564 7.67321 1.18408 8.04552C0.65918 8.57042 0.402832 8.96715 0.170898 9.60802L0.0305176 10.0047L0 28.8646L0.134277 29.1393C0.341797 29.5421 0.616455 29.7069 1.0376 29.6764C1.34888 29.652 1.64185 29.4933 5.0293 27.5585C7.03735 26.411 8.71582 25.4527 8.75855 25.4405C8.80127 25.4222 10.5286 26.3744 12.5977 27.5585L16.3574 29.7069L16.6809 29.6764C17.0715 29.6459 17.334 29.475 17.4805 29.1759C17.5659 28.9928 17.5781 28.5838 17.5781 25.6053C17.5781 23.756 17.5903 22.2423 17.6086 22.2423C17.627 22.2423 18.5059 22.7367 19.5557 23.3409C20.6421 23.9696 21.5698 24.464 21.6919 24.4823C22.0337 24.5372 22.4365 24.3541 22.6318 24.055L22.7966 23.8048L22.8149 14.5397C22.8271 6.51354 22.8149 5.21349 22.7356 4.82897C22.5037 3.69371 21.6553 2.60119 20.6299 2.1129C20.343 1.97863 19.9707 1.83825 19.8059 1.80163C19.4458 1.71618 9.08813 1.67345 8.53882 1.7528ZM19.7144 3.85241C20.3369 4.10875 20.6909 4.62145 20.813 5.43322C20.874 5.87267 20.9045 21.8151 20.8435 21.8151C20.8252 21.8151 20.0806 21.3939 19.1895 20.8873L17.572 19.9535L17.5781 15.0401C17.5903 10.1451 17.5903 10.1268 17.4561 9.69957C17.2363 9.00377 16.98 8.58263 16.449 8.05162C16.0828 7.68541 15.8447 7.50231 15.5029 7.33751C14.6423 6.91637 14.6912 6.92247 10.7483 6.92247H7.20215V6.17174C7.20215 4.99987 7.40356 4.43224 7.96509 4.04162C8.47168 3.68761 8.39844 3.69371 14.1296 3.70592L19.3787 3.71813L19.7144 3.85241ZM14.1602 8.97326C14.8376 9.12584 15.3015 9.52867 15.5151 10.1512C15.5762 10.3221 15.5945 12.2325 15.6128 18.6901C15.6189 23.2616 15.6128 27.003 15.5945 27.003C15.5762 27.003 14.1113 26.173 12.3413 25.1598C9.33228 23.4386 9.10645 23.3165 8.81958 23.3165C8.52661 23.3104 8.36792 23.3959 5.28564 25.1598C3.51562 26.173 2.03857 27.003 2.00806 27.003C1.97144 27.003 1.95923 23.6644 1.96533 18.745C1.98975 9.55919 1.95923 10.1818 2.39868 9.59581C2.6123 9.30284 3.10059 9.02819 3.54004 8.94274C3.69263 8.91222 6.04858 8.88781 8.77686 8.8817C13.0798 8.8756 13.7939 8.88781 14.1602 8.97326Z" fill="#6A4BFF"/>
<path d="M11.0474 13.734C10.9192 13.7889 10.2478 14.4115 9.38721 15.2721L7.93457 16.7186L7.34253 16.1266C6.73218 15.5223 6.54907 15.4064 6.20727 15.4064C5.75561 15.4125 5.25513 15.913 5.24902 16.3707C5.24902 16.7369 5.41382 16.9567 6.44531 17.982C7.30591 18.8304 7.51343 19.0013 7.70874 19.038C8.25195 19.1417 8.23975 19.1539 10.3088 17.097C11.3647 16.0411 12.2559 15.1073 12.3047 14.9974C12.5061 14.5336 12.3047 14.0087 11.8408 13.7706C11.5295 13.6119 11.3464 13.6058 11.0474 13.734Z" fill="#6A4BFF"/>
</svg>
